<svg xmlns="http://www.w3.org/2000/svg" viewBox="0 0 1376.67 874.6">
  <defs>
    <style>
      .cls-1 {
        isolation: isolate;
      }

      .cls-2 {
        fill: #ccc;
        mix-blend-mode: multiply;
      }

      .cls-3 {
        fill: #e8edef;
      }

      .cls-4 {
        fill: #fff;
      }

      .cls-5 {
        fill: #3d82ac;
      }

      .cls-6 {
        fill: #479cc6;
      }

      .cls-7 {
        fill: #52b4db;
      }

      .cls-8 {
        fill: #a0a7aa;
      }

      .cls-9 {
        fill: #ced5d8;
      }

      .cls-10 {
        fill: #f7f7f7;
      }

      .cls-11 {
        fill: #d3d3d3;
      }

      .cls-12 {
        fill: #e2e2e2;
      }

      .cls-13 {
        fill: #464469;
      }

      .cls-14 {
        fill: #888e91;
      }

      .cls-15 {
        fill: #bbc1c4;
      }

      .cls-16 {
        fill: #5e6366;
      }

      .cls-17 {
        fill: #eaeaea;
      }

      .cls-18 {
        fill: #ededed;
      }

      .cls-19 {
        fill: #b7b7b7;
      }
    </style>
  </defs>
  <title>board</title>
  <g class="cls-1">
    <g id="Layer_2" data-name="Layer 2">
      <g id="Layer_1-2" data-name="Layer 1">
        <g>
          <g>
            <polygon class="cls-2" points="712.6 19.68 25.59 416.33 659.51 782.32 659.51 797.1 685.1 797.1 1372.12 400.45 712.6 19.68"/>
            <g>
              <g>
                <polygon class="cls-3" points="0 396.65 687.01 0 1346.53 380.77 659.51 777.42 0 396.65"/>
                <polygon class="cls-4" points="690.92 719.92 99.59 378.52 687.23 39.24 1278.55 380.65 690.92 719.92"/>
                <g>
                  <polygon class="cls-4" points="687.69 124.33 613.77 81.65 687.23 39.24 761.14 81.92 687.69 124.33"/>
                  <polygon class="cls-5" points="617.17 81.66 687.24 41.21 757.74 81.91 687.68 122.37 617.17 81.66"/>
                  <polygon class="cls-4" points="761.6 167 687.69 124.33 761.14 81.92 835.06 124.59 761.6 167"/>
                  <polygon class="cls-5" points="691.09 124.33 761.15 83.88 831.66 124.59 761.59 165.04 691.09 124.33"/>
                  <polygon class="cls-4" points="835.52 209.68 761.6 167 835.06 124.59 908.97 167.27 835.52 209.68"/>
                  <polygon class="cls-5" points="765 167.01 835.07 126.56 905.58 167.26 835.51 207.72 765 167.01"/>
                  <polygon class="cls-4" points="909.43 252.35 835.52 209.68 908.97 167.27 982.89 209.95 909.43 252.35"/>
                  <polygon class="cls-5" points="838.92 209.69 908.98 169.23 979.49 209.94 909.42 250.39 838.92 209.69"/>
                  <polygon class="cls-4" points="983.35 295.03 909.43 252.35 982.89 209.95 1056.81 252.62 983.35 295.03"/>
                  <polygon class="cls-5" points="912.83 252.36 982.9 211.91 1053.41 252.62 983.34 293.07 912.83 252.36"/>
                  <polygon class="cls-4" points="1057.27 337.7 983.35 295.03 1056.81 252.62 1130.72 295.3 1057.27 337.7"/>
                  <polygon class="cls-5" points="986.75 295.04 1056.82 254.58 1127.32 295.29 1057.26 335.74 986.75 295.04"/>
                  <polygon class="cls-4" points="1131.18 380.38 1057.27 337.7 1130.72 295.3 1204.64 337.97 1131.18 380.38"/>
                  <polygon class="cls-5" points="1060.66 337.71 1130.73 297.26 1201.24 337.97 1131.17 378.42 1060.66 337.71"/>
                  <polygon class="cls-4" points="614.23 166.74 540.32 124.06 613.77 81.65 687.69 124.33 614.23 166.74"/>
                  <polygon class="cls-5" points="543.72 124.07 613.78 83.61 684.29 124.32 614.22 164.78 543.72 124.07"/>
                  <polygon class="cls-4" points="762.07 252.09 688.15 209.41 761.6 167 835.52 209.68 762.07 252.09"/>
                  <polygon class="cls-6" points="691.55 209.42 761.61 168.97 832.12 209.67 762.05 250.13 691.55 209.42"/>
                  <polygon class="cls-4" points="835.98 294.76 762.07 252.09 835.52 209.68 909.43 252.35 835.98 294.76"/>
                  <polygon class="cls-6" points="765.46 252.09 835.53 211.64 906.04 252.35 835.97 292.8 765.46 252.09"/>
                  <polygon class="cls-4" points="909.9 337.44 835.98 294.76 909.43 252.35 983.35 295.03 909.9 337.44"/>
                  <polygon class="cls-6" points="839.38 294.77 909.45 254.32 979.95 295.02 909.89 335.48 839.38 294.77"/>
                  <polygon class="cls-4" points="983.81 380.11 909.9 337.44 983.35 295.03 1057.27 337.7 983.81 380.11"/>
                  <polygon class="cls-6" points="913.29 337.44 983.36 296.99 1053.87 337.7 983.8 378.15 913.29 337.44"/>
                  <polygon class="cls-4" points="1057.73 422.79 983.81 380.11 1057.27 337.7 1131.18 380.38 1057.73 422.79"/>
                  <polygon class="cls-6" points="987.21 380.12 1057.28 339.67 1127.78 380.37 1057.72 420.83 987.21 380.12"/>
                  <polygon class="cls-4" points="1131.64 465.46 1057.73 422.79 1131.18 380.38 1205.1 423.06 1131.64 465.46"/>
                  <polygon class="cls-5" points="1061.13 422.8 1131.19 382.34 1201.7 423.05 1131.63 463.5 1061.13 422.8"/>
                  <polygon class="cls-4" points="540.78 209.15 466.86 166.47 540.32 124.06 614.23 166.74 540.78 209.15"/>
                  <polygon class="cls-5" points="470.26 166.48 540.33 126.03 610.84 166.73 540.77 207.18 470.26 166.48"/>
                  <polygon class="cls-4" points="614.7 251.82 540.78 209.15 614.23 166.74 688.15 209.41 614.7 251.82"/>
                  <polygon class="cls-6" points="544.18 209.15 614.24 168.7 684.75 209.41 614.68 249.86 544.18 209.15"/>
                  <polygon class="cls-4" points="688.61 294.5 614.7 251.82 688.15 209.41 762.07 252.09 688.61 294.5"/>
                  <polygon class="cls-7" points="618.09 251.83 688.16 211.38 758.67 252.08 688.6 292.54 618.09 251.83"/>
                  <polygon class="cls-4" points="762.53 337.17 688.61 294.5 762.07 252.09 835.98 294.76 762.53 337.17"/>
                  <polygon class="cls-7" points="692.01 294.5 762.08 254.05 832.58 294.76 762.52 335.21 692.01 294.5"/>
                  <polygon class="cls-4" points="836.44 379.85 762.53 337.17 835.98 294.76 909.9 337.44 836.44 379.85"/>
                  <polygon class="cls-7" points="765.92 337.18 835.99 296.73 906.5 337.43 836.43 377.88 765.92 337.18"/>
                  <polygon class="cls-4" points="910.36 422.52 836.44 379.85 909.9 337.44 983.81 380.11 910.36 422.52"/>
                  <polygon class="cls-7" points="839.84 379.85 909.91 339.4 980.41 380.11 910.35 420.56 839.84 379.85"/>
                  <polygon class="cls-4" points="984.27 465.2 910.36 422.52 983.81 380.11 1057.73 422.79 984.27 465.2"/>
                  <polygon class="cls-6" points="913.76 422.53 983.82 382.08 1054.33 422.78 984.26 463.24 913.76 422.53"/>
                  <polygon class="cls-4" points="1058.19 507.87 984.27 465.2 1057.73 422.79 1131.64 465.46 1058.19 507.87"/>
                  <polygon class="cls-5" points="987.67 465.2 1057.74 424.75 1128.24 465.46 1058.18 505.91 987.67 465.2"/>
                  <polygon class="cls-4" points="467.32 251.56 393.41 208.88 466.86 166.47 540.78 209.15 467.32 251.56"/>
                  <polygon class="cls-5" points="396.81 208.89 466.87 168.43 537.38 209.14 467.31 249.59 396.81 208.89"/>
                  <polygon class="cls-4" points="541.24 294.23 467.32 251.56 540.78 209.15 614.7 251.82 541.24 294.23"/>
                  <polygon class="cls-6" points="470.72 251.56 540.79 211.11 611.3 251.81 541.23 292.27 470.72 251.56"/>
                  <polygon class="cls-4" points="615.16 336.91 541.24 294.23 614.7 251.82 688.61 294.5 615.16 336.91"/>
                  <polygon class="cls-7" points="544.64 294.24 614.71 253.78 685.21 294.49 615.15 334.94 544.64 294.24"/>
                  <polygon class="cls-4" points="689.07 379.58 615.16 336.91 688.61 294.5 762.53 337.17 689.07 379.58"/>
                  <polygon class="cls-5" points="618.55 336.91 688.62 296.46 759.13 337.17 689.06 377.62 618.55 336.91"/>
                  <polygon class="cls-4" points="762.99 422.26 689.07 379.58 762.53 337.17 836.44 379.85 762.99 422.26"/>
                  <polygon class="cls-5" points="692.47 379.59 762.54 339.13 833.04 379.84 762.98 420.3 692.47 379.59"/>
                  <polygon class="cls-4" points="836.9 464.93 762.99 422.26 836.44 379.85 910.36 422.52 836.9 464.93"/>
                  <polygon class="cls-7" points="766.39 422.26 836.45 381.81 906.96 422.52 836.89 462.97 766.39 422.26"/>
                  <polygon class="cls-4" points="910.82 507.61 836.9 464.93 910.36 422.52 984.27 465.2 910.82 507.61"/>
                  <polygon class="cls-6" points="840.3 464.94 910.37 424.49 980.88 465.19 910.81 505.64 840.3 464.94"/>
                  <polygon class="cls-4" points="984.74 550.28 910.82 507.61 984.27 465.2 1058.19 507.87 984.74 550.28"/>
                  <polygon class="cls-5" points="914.22 507.61 984.28 467.16 1054.79 507.87 984.72 548.32 914.22 507.61"/>
                  <polygon class="cls-4" points="393.87 293.96 319.95 251.29 393.41 208.88 467.32 251.56 393.87 293.96"/>
                  <polygon class="cls-5" points="323.35 251.29 393.42 210.84 463.93 251.55 393.86 292 323.35 251.29"/>
                  <polygon class="cls-4" points="541.7 379.31 467.79 336.64 541.24 294.23 615.16 336.91 541.7 379.31"/>
                  <polygon class="cls-7" points="471.18 336.64 541.25 296.19 611.76 336.9 541.69 377.35 471.18 336.64"/>
                  <polygon class="cls-4" points="615.62 421.99 541.7 379.31 615.16 336.91 689.07 379.58 615.62 421.99"/>
                  <polygon class="cls-5" points="545.1 379.32 615.17 338.87 685.67 379.57 615.61 420.03 545.1 379.32"/>
                  <polygon class="cls-4" points="689.53 464.67 615.62 421.99 689.07 379.58 762.99 422.26 689.53 464.67"/>
                  <polygon class="cls-5" points="619.01 422 689.08 381.54 759.59 422.25 689.52 462.7 619.01 422"/>
                  <polygon class="cls-4" points="763.45 507.34 689.53 464.67 762.99 422.26 836.9 464.93 763.45 507.34"/>
                  <polygon class="cls-7" points="692.93 464.67 763 424.22 833.5 464.93 763.44 505.38 692.93 464.67"/>
                  <polygon class="cls-4" points="837.37 550.02 763.45 507.34 836.9 464.93 910.82 507.61 837.37 550.02"/>
                  <polygon class="cls-6" points="766.85 507.35 836.91 466.89 907.42 507.6 837.35 548.05 766.85 507.35"/>
                  <polygon class="cls-4" points="320.42 336.37 246.5 293.7 319.95 251.29 393.87 293.96 320.42 336.37"/>
                  <polygon class="cls-5" points="249.9 293.7 319.96 253.25 390.47 293.96 320.4 334.41 249.9 293.7"/>
                  <polygon class="cls-4" points="394.33 379.05 320.42 336.37 393.87 293.96 467.79 336.64 394.33 379.05"/>
                  <polygon class="cls-6" points="323.81 336.38 393.88 295.93 464.39 336.63 394.32 377.09 323.81 336.38"/>
                  <polygon class="cls-4" points="468.25 421.72 394.33 379.05 467.79 336.64 541.7 379.31 468.25 421.72"/>
                  <polygon class="cls-7" points="397.73 379.06 467.8 338.6 538.3 379.31 468.24 419.76 397.73 379.06"/>
                  <polygon class="cls-4" points="542.16 464.4 468.25 421.72 541.7 379.31 615.62 421.99 542.16 464.4"/>
                  <polygon class="cls-7" points="471.64 421.73 541.71 381.28 612.22 421.98 542.15 462.44 471.64 421.73"/>
                  <polygon class="cls-4" points="616.08 507.07 542.16 464.4 615.62 421.99 689.53 464.67 616.08 507.07"/>
                  <polygon class="cls-7" points="545.56 464.41 615.63 423.95 686.13 464.66 616.07 505.11 545.56 464.41"/>
                  <polygon class="cls-4" points="690 549.75 616.08 507.07 689.53 464.67 763.45 507.34 690 549.75"/>
                  <polygon class="cls-7" points="619.48 507.08 689.54 466.63 760.05 507.33 689.98 547.79 619.48 507.08"/>
                  <polygon class="cls-4" points="763.91 592.42 690 549.75 763.45 507.34 837.37 550.02 763.91 592.42"/>
                  <polygon class="cls-6" points="693.39 549.76 763.46 509.3 833.97 550.01 763.9 590.46 693.39 549.76"/>
                  <polygon class="cls-4" points="837.83 635.1 763.91 592.42 837.37 550.02 911.28 592.69 837.83 635.1"/>
                  <polygon class="cls-5" points="767.31 592.43 837.38 551.98 907.88 592.68 837.82 633.14 767.31 592.43"/>
                  <polygon class="cls-4" points="246.96 378.78 173.04 336.11 246.5 293.7 320.42 336.37 246.96 378.78"/>
                  <polygon class="cls-5" points="176.44 336.11 246.51 295.66 317.02 336.37 246.95 376.82 176.44 336.11"/>
                  <polygon class="cls-4" points="320.88 421.46 246.96 378.78 320.42 336.37 394.33 379.05 320.88 421.46"/>
                  <polygon class="cls-6" points="250.36 378.79 320.43 338.34 390.93 379.04 320.87 419.5 250.36 378.79"/>
                  <polygon class="cls-4" points="394.79 464.13 320.88 421.46 394.33 379.05 468.25 421.72 394.79 464.13"/>
                  <polygon class="cls-6" points="324.27 421.46 394.34 381.01 464.85 421.72 394.78 462.17 324.27 421.46"/>
                  <polygon class="cls-4" points="468.71 506.81 394.79 464.13 468.25 421.72 542.16 464.4 468.71 506.81"/>
                  <polygon class="cls-6" points="398.19 464.14 468.26 423.69 538.76 464.39 468.7 504.85 398.19 464.14"/>
                  <polygon class="cls-4" points="542.62 549.48 468.71 506.81 542.16 464.4 616.08 507.07 542.62 549.48"/>
                  <polygon class="cls-6" points="472.11 506.81 542.17 466.36 612.68 507.07 542.61 547.52 472.11 506.81"/>
                  <polygon class="cls-4" points="690.46 634.83 616.54 592.16 690 549.75 763.91 592.42 690.46 634.83"/>
                  <polygon class="cls-6" points="619.94 592.16 690 551.71 760.51 592.42 690.45 632.87 619.94 592.16"/>
                  <polygon class="cls-4" points="764.37 677.51 690.46 634.83 763.91 592.42 837.83 635.1 764.37 677.51"/>
                  <polygon class="cls-5" points="693.85 634.84 763.92 594.39 834.43 635.1 764.36 675.55 693.85 634.84"/>
                  <polygon class="cls-4" points="247.42 463.87 173.51 421.19 246.96 378.78 320.88 421.46 247.42 463.87"/>
                  <polygon class="cls-5" points="176.91 421.2 246.97 380.74 317.48 421.45 247.41 461.9 176.91 421.2"/>
                  <polygon class="cls-4" points="321.34 506.54 247.42 463.87 320.88 421.46 394.79 464.13 321.34 506.54"/>
                  <polygon class="cls-5" points="250.82 463.87 320.89 423.42 391.39 464.13 321.33 504.58 250.82 463.87"/>
                  <polygon class="cls-4" points="395.25 549.22 321.34 506.54 394.79 464.13 468.71 506.81 395.25 549.22"/>
                  <polygon class="cls-5" points="324.74 506.55 394.8 466.1 465.31 506.8 395.24 547.25 324.74 506.55"/>
                  <polygon class="cls-4" points="469.17 591.89 395.25 549.22 468.71 506.81 542.62 549.48 469.17 591.89"/>
                  <polygon class="cls-5" points="398.65 549.22 468.72 508.77 539.23 549.48 469.16 589.93 398.65 549.22"/>
                  <polygon class="cls-4" points="543.09 634.57 469.17 591.89 542.62 549.48 616.54 592.16 543.09 634.57"/>
                  <polygon class="cls-5" points="472.57 591.9 542.63 551.45 613.14 592.15 543.08 632.61 472.57 591.9"/>
                  <polygon class="cls-4" points="617 677.24 543.09 634.57 616.54 592.16 690.46 634.83 617 677.24"/>
                  <polygon class="cls-5" points="546.48 634.57 616.55 594.12 687.06 634.83 616.99 675.28 546.48 634.57"/>
                  <polygon class="cls-4" points="690.92 719.92 617 677.24 690.46 634.83 764.37 677.51 690.92 719.92"/>
                  <polygon class="cls-5" points="620.4 677.25 690.47 636.8 760.97 677.5 690.91 717.96 620.4 677.25"/>
                </g>
                <g>
                  <polygon class="cls-6" points="516.52 320.89 511.21 309.58 496.92 317.83 516.52 320.89"/>
                  <polygon class="cls-4" points="467.79 336.64 393.87 293.96 467.32 251.56 541.24 294.23 467.79 336.64"/>
                  <polygon class="cls-6" points="397.27 293.97 467.33 253.52 537.84 294.23 467.77 334.68 397.27 293.97"/>
                </g>
                <g>
                  <polygon class="cls-4" points="688.15 209.41 614.23 166.74 687.69 124.33 761.6 167 688.15 209.41"/>
                  <polygon class="cls-6" points="617.63 166.74 687.7 126.29 758.21 167 688.14 207.45 617.63 166.74"/>
                </g>
                <g>
                  <polygon class="cls-4" points="1205.1 423.06 1131.18 380.38 1204.64 337.97 1278.55 380.65 1205.1 423.06"/>
                  <polygon class="cls-5" points="1134.58 380.39 1204.65 339.93 1275.15 380.64 1205.09 421.09 1134.58 380.39"/>
                </g>
                <g>
                  <polygon class="cls-5" points="862.04 523.38 867.35 534.69 881.64 526.44 862.04 523.38"/>
                  <polygon class="cls-4" points="911.28 592.69 837.37 550.02 910.82 507.61 984.74 550.28 911.28 592.69"/>
                  <polygon class="cls-5" points="840.76 550.02 910.83 509.57 981.34 550.28 911.27 590.73 840.76 550.02"/>
                </g>
                <g>
                  <polygon class="cls-4" points="616.54 592.16 542.62 549.48 616.08 507.07 690 549.75 616.54 592.16"/>
                  <polygon class="cls-6" points="546.02 549.49 616.09 509.04 686.6 549.74 616.53 590.2 546.02 549.49"/>
                </g>
                <g>
                  <polygon class="cls-4" points="173.51 421.19 99.59 378.52 173.04 336.11 246.96 378.78 173.51 421.19"/>
                  <polygon class="cls-5" points="102.99 378.52 173.06 338.07 243.56 378.78 173.5 419.23 102.99 378.52"/>
                </g>
              </g>
              <g>
                <polygon class="cls-8" points="1346.53 400.47 1346.53 380.77 659.51 777.42 659.51 797.12 1346.53 400.47"/>
                <polygon class="cls-9" points="0 396.65 0 416.35 659.51 797.12 659.51 777.42 0 396.65"/>
              </g>
              <g>
                <g>
                  <polygon class="cls-10" points="542.03 361.31 473 321.33 541.37 282.36 610.4 322.33 542.03 361.31"/>
                  <polygon class="cls-11" points="542.05 376.56 542.03 361.31 610.4 322.33 610.4 336.97 542.05 376.56"/>
                  <polygon class="cls-12" points="473 321.33 473 335.97 542.05 376.56 542.03 361.31 473 321.33"/>
                </g>
                <path class="cls-13" d="M587.33,329l-1.74-1,2.17-2.65-5.31-3.07-4.58,1.26-1.66-1,16.59-4.42,2.18,1.26Zm1.31-4.74,3.8-4.68-8.11,2.19Z"/>
                <path class="cls-13" d="M532,340.88l-25.59-14.79,4.76-2.74L521,329l31.32-18.09-9.83-5.68,4.28-2.46a46.16,46.16,0,0,0,4.61,2.28,21.11,21.11,0,0,0,4.43,1.45,15.76,15.76,0,0,0,4.28.18,11.78,11.78,0,0,0,4.22-1.31l4.95,2.83-42.14,24.33,9.65,5.58Z"/>
              </g>
              <g>
                <g>
                  <polygon class="cls-10" points="615.72 404.36 546.69 364.38 615.05 325.41 684.08 365.39 615.72 404.36"/>
                  <polygon class="cls-11" points="615.73 419.61 615.72 404.36 684.08 365.39 684.08 380.02 615.73 419.61"/>
                  <polygon class="cls-12" points="546.69 364.38 546.69 379.02 615.73 419.61 615.72 404.36 546.69 364.38"/>
                </g>
                <path class="cls-13" d="M661,372.17l-1.66-1L670,365.06l-10.73,2.17-1-.57,3.8-6.18-10.65,6.15-1.56-.9,12.36-7.14,2.27,1.31-3.55,5.9,10.11-2.11,2.31,1.33Z"/>
                <path class="cls-13" d="M606.2,385.1l-26.51-15.3,5-2.85,10.2,5.9,32.41-18.73-10.2-5.88,4.43-2.56a42.62,42.62,0,0,0,4.77,2.37,21,21,0,0,0,4.59,1.5,16.43,16.43,0,0,0,4.43.18,11.94,11.94,0,0,0,4.37-1.37l5.11,3-43.6,25.17,10,5.77Z"/>
              </g>
              <g>
                <g>
                  <polygon class="cls-10" points="689.63 447.23 620.61 407.26 688.97 368.29 758 408.26 689.63 447.23"/>
                  <polygon class="cls-11" points="689.65 462.48 689.63 447.23 758 408.26 758 422.9 689.65 462.48"/>
                  <polygon class="cls-12" points="620.61 407.26 620.61 421.9 689.65 462.48 689.63 447.23 620.61 407.26"/>
                </g>
                <path class="cls-13" d="M734.81,413.45l-4.5-2.6,1.15-.66,1.5.86,8.95-5.17-1.49-.86,1.15-.66,4.5,2.6-1.15.66-1.49-.86-8.95,5.17,1.49.86Z"/>
                <path class="cls-13" d="M679.56,429.88l-27-15.56,5-2.91,10.39,6,33-19.06-10.42-6,4.51-2.59a45.91,45.91,0,0,0,4.86,2.4,21.25,21.25,0,0,0,4.67,1.53,16.08,16.08,0,0,0,4.51.19,12,12,0,0,0,4.45-1.38l5.21,3-44.4,25.63L684.58,427Z"/>
              </g>
              <g>
                <g>
                  <polygon class="cls-10" points="763.42 489.6 694.39 449.63 762.76 410.66 831.79 450.63 763.42 489.6"/>
                  <polygon class="cls-11" points="763.43 504.86 763.42 489.6 831.79 450.63 831.79 465.27 763.43 504.86"/>
                  <polygon class="cls-12" points="694.39 449.63 694.39 464.27 763.43 504.86 763.42 489.6 694.39 449.63"/>
                </g>
                <path class="cls-13" d="M811.35,455.83l-1.86-1.07,4.62-8.85-10,5.76-1.4-.81,11.15-6.44,2.33,1.34L812,453.84l9.1-5.26,1.4.81Z"/>
                <path class="cls-13" d="M757,472.77,724.46,454l6.66-3.83c4.15.18,8.34.4,12.46.6s8.22.33,12.07.38a152.57,152.57,0,0,0,17.87-.55,25.4,25.4,0,0,0,9.81-3q3.71-2.13,3.3-4.76c-.22-1.74-1.8-3.45-4.8-5.16a36.11,36.11,0,0,0-7.36-3.08,55.6,55.6,0,0,0-9.77-2l-.31-.18,6.69-3.85a62.65,62.65,0,0,1,8.13,2.35,48,48,0,0,1,8.31,3.73c4.89,2.84,7.61,5.74,8.06,8.71s-1.35,5.61-5.38,7.93a28,28,0,0,1-5.68,2.52,38.35,38.35,0,0,1-6.54,1.36,65.32,65.32,0,0,1-6.81.55c-2.41.08-5.16.11-8.31.08-4.52,0-9.07-.17-13.59-.37s-8.76-.41-12.68-.62l25.81,14.91Z"/>
              </g>
              <g>
                <g>
                  <polygon class="cls-10" points="837.25 532.29 768.22 492.32 836.58 453.35 905.61 493.32 837.25 532.29"/>
                  <polygon class="cls-11" points="837.26 547.54 837.25 532.29 905.61 493.32 905.61 507.95 837.26 547.54"/>
                  <polygon class="cls-12" points="768.22 492.32 768.22 506.95 837.26 547.54 837.25 532.29 768.22 492.32"/>
                </g>
                <path class="cls-13" d="M884.66,498.76l-7.54-4.35,11.3-6.52,7.54,4.35-1.34.77-6-3.47-3.1,1.79,6,3.47-1.33.77-6-3.47-4.2,2.42,6,3.47Z"/>
                <path class="cls-13" d="M828.84,515.28l-27.22-15.71,5.06-2.93,10.47,6.05,33.27-19.23-10.44-6,4.52-2.63a46.48,46.48,0,0,0,4.9,2.43,21.82,21.82,0,0,0,4.71,1.54,16.83,16.83,0,0,0,4.55.19,11.82,11.82,0,0,0,4.49-1.41l5.25,3-44.77,25.84,10.28,5.93Z"/>
              </g>
            </g>
          </g>
          <g>
            <polygon class="cls-2" points="920.12 874.6 984.36 874.6 1376.67 648.1 1228.3 563.17 880.71 825.86 920.12 874.6"/>
            <g>
              <g>
                <polygon class="cls-14" points="1311.69 648.87 1214.74 592.89 1214.74 521.75 1275.85 557.03 1311.69 648.87"/>
                <polygon class="cls-15" points="1275.85 557.03 1285.49 551.39 1224.38 516.11 1214.74 521.75 1275.85 557.03"/>
                <polygon class="cls-16" points="1311.69 648.87 1321.34 643.22 1285.49 551.39 1275.85 557.03 1311.69 648.87"/>
              </g>
              <g>
                <polygon class="cls-16" points="842.22 817.88 1224.38 598.53 1224.38 527.4 842.22 747.63 842.22 817.88"/>
                <polygon class="cls-15" points="842.22 747.63 832.58 741.98 1214.74 521.75 1224.38 527.4 842.22 747.63"/>
                <polygon class="cls-13" points="842.22 817.88 832.58 812.24 832.58 741.98 842.22 747.63 842.22 817.88"/>
              </g>
              <g>
                <polygon class="cls-4" points="848.58 813.87 1224.38 598.48 1276.23 628.17 899.67 843.13 848.58 813.87"/>
                <polygon class="cls-4" points="899.67 843.13 899.76 854.3 1276.33 639.34 1276.23 628.17 899.67 843.13"/>
                <polygon class="cls-13" points="848.58 813.87 848.68 825.05 899.76 854.3 899.67 843.13 848.58 813.87"/>
              </g>
              <g>
                <g>
                  <polygon class="cls-11" points="1179.98 590.76 1231.04 561.61 1246.54 618.38 1195.47 647.53 1179.98 590.76"/>
                  <polygon class="cls-17" points="1170.26 585.11 1179.98 590.76 1195.47 647.53 1186.15 642.11 1170.26 585.11"/>
                  <polygon class="cls-10" points="1231.04 561.61 1221.71 556.18 1170.26 585.11 1179.98 590.76 1231.04 561.61"/>
                </g>
                <path class="cls-13" d="M1225.14,568.31c2.09-1.21,3.39-.42,3.93,1.78l1.78,7.18a4.41,4.41,0,0,1-2.18,5.28l-3.15,1.82L1222,570.13Zm3.15,12.81a2.4,2.4,0,0,0,1.1-2.93l-1.82-7.33c-.32-1.3-1-1.72-2.12-1.09l-1.61.93,2.82,11.35Z"/>
                <path class="cls-13" d="M1210.45,593.54a17.2,17.2,0,0,1-5,4.9l-.94-3.77c4.21-2.63,5.08-6,5.33-9.43l3-1.74,10.31,41.58-4.28,2.5Z"/>
              </g>
              <g>
                <g>
                  <polygon class="cls-11" points="1122.69 623.86 1173.75 594.7 1189.25 651.48 1138.19 680.63 1122.69 623.86"/>
                  <polygon class="cls-17" points="1112.97 618.21 1122.69 623.86 1138.19 680.63 1128.86 675.21 1112.97 618.21"/>
                  <polygon class="cls-10" points="1173.75 594.7 1164.42 589.28 1112.97 618.21 1122.69 623.86 1173.75 594.7"/>
                </g>
                <path class="cls-13" d="M1170,610.82l-5.09-7.47,1.55-.89,3.82,5.77.38-8.19,1.42-.82-.6,10.75,1.26,5.09-1.48.85Z"/>
                <path class="cls-13" d="M1153.7,626.21a18.71,18.71,0,0,1-5.14,5l-1-3.88c4.36-2.72,5.22-6.11,5.52-9.69l3.09-1.79,10.59,42.71-4.4,2.55Z"/>
              </g>
              <g>
                <g>
                  <polygon class="cls-11" points="1065.52 656.73 1116.58 627.57 1132.07 684.35 1081.01 713.5 1065.52 656.73"/>
                  <polygon class="cls-17" points="1055.79 651.08 1065.52 656.73 1081.01 713.5 1071.69 708.08 1055.79 651.08"/>
                  <polygon class="cls-10" points="1116.58 627.57 1107.25 622.15 1055.79 651.08 1065.52 656.73 1116.58 627.57"/>
                </g>
                <path class="cls-13" d="M1112.47,647.56c.25-.12.5-.27.73-.4a2.29,2.29,0,0,0,1-2.81l-2.6-10.48,1.43-.83,2.57,10.38a4.13,4.13,0,0,1-1.92,5,9.2,9.2,0,0,1-.92.51Z"/>
                <path class="cls-13" d="M1095.25,660.17a19.57,19.57,0,0,1-5.21,5.15l-1-4c4.42-2.76,5.28-6.19,5.58-9.81l3.13-1.81L1108.53,693,1104,695.6Z"/>
              </g>
              <g>
                <g>
                  <polygon class="cls-11" points="1008.34 689.96 1059.4 660.8 1074.9 717.58 1023.84 746.73 1008.34 689.96"/>
                  <polygon class="cls-17" points="998.62 684.31 1008.34 689.96 1023.84 746.73 1014.51 741.31 998.62 684.31"/>
                  <polygon class="cls-10" points="1059.4 660.8 1050.08 655.38 998.62 684.31 1008.34 689.96 1059.4 660.8"/>
                </g>
                <path class="cls-13" d="M1051.11,669.17l5.06,10.69-.87-13.11,1.33-.77,1,15.09-2.13,1.23L1049.65,670Z"/>
                <path class="cls-13" d="M1037.46,692.35a20.16,20.16,0,0,1-5.32,5.24l-1-4.08c4.47-2.82,5.4-6.37,5.71-10.06l3.26-1.87,11,44.51-4.62,2.68Z"/>
              </g>
              <g>
                <g>
                  <polygon class="cls-11" points="951.17 722.48 1002.23 693.32 1017.73 750.1 966.66 779.25 951.17 722.48"/>
                  <polygon class="cls-17" points="941.45 716.83 951.17 722.48 966.66 779.25 957.34 773.82 941.45 716.83"/>
                  <polygon class="cls-10" points="1002.23 693.32 992.9 687.89 941.45 716.83 951.17 722.48 1002.23 693.32"/>
                </g>
                <path class="cls-13" d="M1000.22,702.25l.32,1.28-1.43.83-.34-1.37c-.32-1.28-1-1.78-2.09-1.15a2.45,2.45,0,0,0-1.07,3l1.87,7.55c.32,1.29,1,1.77,2.09,1.15a2.43,2.43,0,0,0,1.07-3l-.46-1.86,1.42-.82.44,1.77a4.5,4.5,0,0,1-2.15,5.35c-2.06,1.19-3.38.32-3.91-1.84l-1.83-7.38a4.5,4.5,0,0,1,2.14-5.34C998.36,699.22,999.68,700.09,1000.22,702.25Z"/>
                <path class="cls-13" d="M980.27,726.29a20.27,20.27,0,0,1-5.38,5.3l-1-4.1c4.56-2.81,5.42-6.35,5.77-10.1l3.24-1.87L994,760.22l-4.6,2.65Z"/>
              </g>
              <g>
                <g>
                  <polygon class="cls-11" points="893.99 755.83 945.05 726.67 960.55 783.45 909.49 812.6 893.99 755.83"/>
                  <polygon class="cls-17" points="884.27 750.18 893.99 755.83 909.49 812.6 900.17 807.17 884.27 750.18"/>
                  <polygon class="cls-10" points="945.05 726.67 935.73 721.24 884.27 750.18 893.99 755.83 945.05 726.67"/>
                </g>
                <path class="cls-13" d="M934.82,741.3a4.72,4.72,0,0,1,2.27-5.58c2.16-1.25,3.59-.39,4.15,1.87l1.9,7.67a4.74,4.74,0,0,1-2.3,5.58c-2.14,1.24-3.57.37-4.13-1.87Zm3.46,6.86c.34,1.35,1.07,1.82,2.19,1.18a2.53,2.53,0,0,0,1.13-3.1l-1.95-7.83c-.33-1.34-1-1.84-2.19-1.18a2.57,2.57,0,0,0-1.13,3.1Z"/>
                <path class="cls-13" d="M923.57,758.38a19.6,19.6,0,0,1-5.4,5.34l-1-4.1c4.57-2.88,5.48-6.46,5.8-10.25l3.27-1.89,11.19,45.2-4.65,2.7Z"/>
              </g>
              <g>
                <polygon class="cls-16" points="906.76 854.87 1288.92 635.52 1272.52 604.12 890.36 824.35 906.76 854.87"/>
                <polygon class="cls-15" points="890.36 824.35 880.71 818.71 1262.88 598.48 1272.52 604.12 890.36 824.35"/>
                <polygon class="cls-13" points="906.76 854.87 897.11 849.23 880.71 818.71 890.36 824.35 906.76 854.87"/>
              </g>
              <g>
                <polygon class="cls-14" points="920.12 874.6 823.16 818.63 823.16 747.49 884.27 782.77 920.12 874.6"/>
                <polygon class="cls-15" points="884.27 782.77 893.91 777.12 832.81 741.84 823.16 747.49 884.27 782.77"/>
                <polygon class="cls-16" points="920.12 874.6 929.76 868.96 893.91 777.12 884.27 782.77 920.12 874.6"/>
              </g>
            </g>
          </g>
          <g>
            <polygon class="cls-2" points="21.79 640.45 47.99 640.45 396.05 841.05 403.72 860.54 413.36 866.19 469.39 866.19 577.11 798.31 366.81 680.56 39.88 604.66 21.79 640.45"/>
            <g>
              <polygon class="cls-16" points="21.79 640.45 118.74 584.48 118.74 513.34 57.63 548.62 21.79 640.45"/>
              <polygon class="cls-15" points="57.63 548.62 47.99 542.97 109.1 507.69 118.74 513.34 57.63 548.62"/>
              <polygon class="cls-14" points="21.79 640.45 12.14 634.81 47.99 542.97 57.63 548.62 21.79 640.45"/>
            </g>
            <g>
              <polygon class="cls-14" points="491.26 809.47 109.1 590.12 109.1 518.98 491.26 739.21 491.26 809.47"/>
              <polygon class="cls-15" points="491.26 739.21 500.9 733.57 118.74 513.34 109.1 518.98 491.26 739.21"/>
              <polygon class="cls-4" points="491.26 809.47 500.9 803.82 500.9 733.57 491.26 739.21 491.26 809.47"/>
            </g>
            <g>
              <polygon class="cls-4" points="484.9 805.46 109.1 590.06 57.25 619.75 433.81 834.71 484.9 805.46"/>
              <polygon class="cls-4" points="433.81 834.71 433.71 845.88 57.15 630.93 57.25 619.75 433.81 834.71"/>
              <polygon class="cls-4" points="484.9 805.46 484.8 816.63 433.71 845.88 433.81 834.71 484.9 805.46"/>
            </g>
            <g>
              <g>
                <polygon class="cls-18" points="153.5 582.35 102.44 553.19 86.94 609.97 138 639.12 153.5 582.35"/>
                <path class="cls-13" d="M147.27,586.16l-.09.33-1.24-.71.11-.4a2,2,0,0,0-.85-2.5c-.94-.54-1.52-.13-1.83.94-.78,2.72,3.08,5.24,2.1,8.65C145,594.3,143.76,595,142,594a3.69,3.69,0,0,1-1.76-4.54l.2-.69,1.22.71-.22.76a2,2,0,0,0,.88,2.52c.94.54,1.55.15,1.86-.94.77-2.7-3.07-5.21-2.09-8.62.53-1.87,1.7-2.54,3.46-1.53A3.68,3.68,0,0,1,147.27,586.16Z"/>
                <polygon class="cls-19" points="163.22 576.7 153.5 582.35 138 639.12 147.33 633.69 163.22 576.7"/>
                <polygon class="cls-10" points="102.44 553.19 111.77 547.76 163.22 576.7 153.5 582.35 102.44 553.19"/>
                <path class="cls-13" d="M121.37,581.86a12.78,12.78,0,0,1-6.5-1.53l1.14-4.08c4.72,2.51,7.06.81,9.06-1.68l3.36,1.94-12.8,44.71-4.72-2.74Z"/>
              </g>
              <g>
                <polygon class="cls-18" points="211.51 615.18 160.44 586.02 144.95 642.8 196.01 671.95 211.51 615.18"/>
                <path class="cls-13" d="M204.18,615.71a3.19,3.19,0,0,1,1.75,4.08l-.16.56c-.36,1.26-.93,1.84-2,1.59a3.17,3.17,0,0,1,.82,3.45l-.29,1c-.51,1.79-1.64,2.31-3.43,1.27l-2.65-1.53,3.41-11.92Zm-3,10.75c.94.54,1.51.27,1.83-.83l.3-1.05a2,2,0,0,0-1.1-2.7l-1.12-.65-1.27,4.44Zm1.24-5.87c1,.59,1.65.55,2-.69l.2-.7a1.75,1.75,0,0,0-.82-2.3l-1.27-.73-1.1,3.85Z"/>
                <polygon class="cls-19" points="221.23 609.53 211.51 615.18 196.01 671.95 205.34 666.53 221.23 609.53"/>
                <polygon class="cls-10" points="160.44 586.02 169.77 580.6 221.23 609.53 211.51 615.18 160.44 586.02"/>
                <path class="cls-13" d="M181.11,615.93a12.39,12.39,0,0,1-6.13-1.44l1.12-3.85c4.44,2.36,6.65.76,8.53-1.58l3.16,1.83L175.75,653l-4.49-2.58Z"/>
              </g>
              <g>
                <polygon class="cls-18" points="267.96 648.32 216.9 619.16 201.41 675.93 252.47 705.09 267.96 648.32"/>
                <path class="cls-13" d="M260.57,654.87l-.36,1.24-2.91-1.68L256,658.81l3.58,2.07-.36,1.25-4.91-2.83L257.89,647l4.91,2.83-.36,1.25L258.86,649l-1.2,4.21Z"/>
                <polygon class="cls-19" points="277.69 642.67 267.96 648.32 252.47 705.09 261.79 699.66 277.69 642.67"/>
                <polygon class="cls-10" points="216.9 619.16 226.23 613.73 277.69 642.67 267.96 648.32 216.9 619.16"/>
                <path class="cls-13" d="M235.2,648.58a12,12,0,0,1-6-1.43l1.1-3.77c4.36,2.34,6.48.75,8.33-1.55l3.14,1.77-11.82,41.32-4.4-2.53Z"/>
              </g>
              <g>
                <polygon class="cls-18" points="325.14 681.54 274.08 652.39 258.58 709.16 309.64 738.32 325.14 681.54"/>
                <path class="cls-13" d="M318.33,687.82l-.31,1.1-1.24-.72.33-1.17a2,2,0,0,0-.88-2.55c-.94-.54-1.57-.14-1.88,1l-1.84,6.44a2,2,0,0,0,.88,2.56c1,.55,1.57.13,1.88-1l.45-1.58,1.24.72-.43,1.51c-.53,1.85-1.72,2.58-3.53,1.53a3.74,3.74,0,0,1-1.77-4.59l1.8-6.3c.53-1.84,1.72-2.58,3.52-1.54A3.74,3.74,0,0,1,318.33,687.82Z"/>
                <polygon class="cls-19" points="334.86 675.9 325.14 681.54 309.64 738.32 318.97 732.89 334.86 675.9"/>
                <polygon class="cls-10" points="274.08 652.39 283.4 646.96 334.86 675.9 325.14 681.54 274.08 652.39"/>
                <path class="cls-13" d="M293,681.65a11.87,11.87,0,0,1-5.88-1.38l1.07-3.71c4.26,2.29,6.38.73,8.19-1.49l3,1.73-11.56,40.42-4.3-2.49Z"/>
              </g>
              <g>
                <polygon class="cls-18" points="382.31 714.06 331.25 684.91 315.75 741.68 366.81 770.84 382.31 714.06"/>
                <path class="cls-13" d="M369.26,725.74l3.43-12,1.29.74-3.08,10.77,3.31,1.91-.35,1.21Z"/>
                <polygon class="cls-19" points="392.03 708.41 382.31 714.06 366.81 770.84 376.14 765.41 392.03 708.41"/>
                <polygon class="cls-10" points="331.25 684.91 340.58 679.48 392.03 708.41 382.31 714.06 331.25 684.91"/>
                <path class="cls-13" d="M349.72,714a12.14,12.14,0,0,1-6.1-1.44l1.08-3.84c4.42,2.37,6.62.76,8.49-1.58l3.15,1.82-12,41.93-4.46-2.59Z"/>
              </g>
              <g>
                <polygon class="cls-18" points="439.49 747.41 388.43 718.26 372.93 775.03 423.99 804.19 439.49 747.41"/>
                <path class="cls-13" d="M428.08,759.26l3-10.41L429,747.65l.34-1.17,5.36,3.09-.34,1.17-2.06-1.19-3,10.41Z"/>
                <polygon class="cls-19" points="449.21 741.76 439.49 747.41 423.99 804.19 433.31 798.76 449.21 741.76"/>
                <polygon class="cls-10" points="388.43 718.26 397.75 712.83 449.21 741.76 439.49 747.41 388.43 718.26"/>
                <path class="cls-13" d="M407.75,748.4a12,12,0,0,1-5.91-1.39l1-3.7c4.28,2.28,6.45.73,8.26-1.55l3,1.76-11.62,40.59-4.28-2.47Z"/>
              </g>
            </g>
            <g>
              <polygon class="cls-14" points="426.72 846.46 44.56 627.11 60.96 595.71 443.12 815.94 426.72 846.46"/>
              <polygon class="cls-15" points="443.12 815.94 452.77 810.29 70.61 590.06 60.96 595.71 443.12 815.94"/>
              <polygon class="cls-4" points="426.72 846.46 436.37 840.81 452.77 810.29 443.12 815.94 426.72 846.46"/>
            </g>
            <g>
              <polygon class="cls-16" points="413.36 866.19 510.31 810.21 510.31 739.07 449.21 774.35 413.36 866.19"/>
              <polygon class="cls-15" points="449.21 774.35 439.56 768.71 500.67 733.43 510.31 739.07 449.21 774.35"/>
              <polygon class="cls-14" points="413.36 866.19 403.72 860.54 439.56 768.71 449.21 774.35 413.36 866.19"/>
            </g>
          </g>
        </g>
      </g>
    </g>
  </g>
</svg>
